# xmcd
#
# Track frame offsets:
#	150
#	15816
#	30573
#	45309
#	59220
#	73127
#	87044
#	101264
#	114891
#	129632
#	143159
#	156650
#	171060
#
# Disc length: 2474 seconds
#
# Revision: 1
# Processed by: cddbd v1.5.1PL0 Copyright (c) Steve Scherf et al.
# Submitted via: audiograbber 1.83.01
#
DISCID=a409a80d
DTITLE=Various Artist - Anthology of American Folk Mus  CD1
DYEAR=1900
DGENRE=Country
TTITLE0=Dick Justice - Henry Lee
TTITLE1=Tom Ashley - The House Carpenter
TTITLE2=Coley Jones - Drunkard's Special
TTITLE3=Bill Reed - Old Lady and the Devil
TTITLE4=Buell Kazee - The Butcher's Boy
TTITLE5=Buell Kazee - The Wagoner's Lad
TTITLE6=Chubby Parker - King Kong Kitchie Kitchie Ki-M
TTITLE7=Uncle Eck Dunford - Old Shoes and Leggins
TTITLE8=Richard Burnett - Willie Moore
TTITLE9=Buster Carter - A Lazy Farmer Boy
TTITLE10=Carolina Tar Heels - Peg and Awl
TTITLE11=G. B. Grayson - Ommie Wise
TTITLE12=Kelly Harrell - My Name is John Johanna
EXTD=
EXTT0=
EXTT1=
EXTT2=
EXTT3=
EXTT4=
EXTT5=
EXTT6=
EXTT7=
EXTT8=
EXTT9=
EXTT10=
EXTT11=
EXTT12=
PLAYORDER=
